<?xml version="1.0" standalone="no"?>
<!DOCTYPE svg PUBLIC "-//W3C//DTD SVG 20010904//EN"
        "http://www.w3.org/TR/2001/REC-SVG-20010904/DTD/svg10.dtd">
<svg version="1.0" xmlns="http://www.w3.org/2000/svg"
     width="24" height="24" viewBox="0 0 512.000000 512.000000"
     preserveAspectRatio="xMidYMid meet">

    <g transform="translate(0.000000,512.000000) scale(0.100000,-0.100000)"
       fill="#000000" stroke="none">
        <path d="M2370 5114 c-19 -2 -78 -9 -130 -15 -282 -32 -627 -140 -880 -275
-111 -60 -313 -195 -420 -281 -295 -238 -572 -600 -721 -945 -134 -309 -203
-609 -215 -948 -29 -750 273 -1469 833 -1981 865 -792 2167 -890 3145 -237
766 511 1206 1419 1129 2328 -26 308 -99 594 -222 861 -60 132 -144 280 -167
294 -58 35 -124 18 -147 -38 -18 -43 -11 -70 40 -156 131 -222 239 -540 282
-826 24 -166 24 -515 -1 -673 -22 -146 -65 -320 -111 -452 -74 -215 -226 -489
-373 -675 -61 -76 -271 -295 -284 -295 -4 0 -8 7 -8 15 0 9 -16 66 -36 128
-156 490 -530 869 -1019 1034 -176 59 -295 77 -505 77 -152 0 -205 -4 -298
-22 -585 -117 -1045 -526 -1226 -1089 -20 -62 -36 -119 -36 -128 0 -8 -4 -15
-8 -15 -13 0 -223 219 -284 295 -189 238 -332 519 -418 820 -150 521 -108
1108 113 1600 186 415 478 760 857 1010 292 194 610 317 960 371 140 22 520
25 645 6 430 -68 752 -196 1075 -428 68 -49 101 -66 126 -67 70 -2 120 69 94
133 -7 17 -40 51 -79 79 -350 258 -746 418 -1191 481 -78 11 -459 21 -520 14z
m360 -3264 c223 -28 481 -130 660 -261 277 -203 481 -527 543 -863 l15 -78
-107 -70 c-274 -179 -596 -300 -943 -354 -158 -25 -518 -25 -676 0 -346 54
-670 176 -943 354 l-107 70 15 78 c97 525 495 949 1019 1087 169 45 352 58
524 37z"/>
        <path d="M4351 4286 c-87 -48 -50 -186 49 -186 51 0 100 49 100 99 0 75 -83
124 -149 87z"/>
        <path d="M2398 4045 c-343 -65 -617 -319 -709 -660 -32 -115 -32 -335 0 -450
88 -324 340 -570 668 -652 103 -26 323 -23 428 6 324 87 570 339 652 668 26
103 23 323 -6 428 -86 317 -333 564 -646 645 -105 28 -283 35 -387 15z m295
-199 c321 -62 567 -359 567 -686 0 -169 -74 -351 -192 -476 -220 -231 -530
-287 -818 -147 -79 38 -109 60 -181 132 -71 71 -94 102 -133 181 -140 285 -83
598 148 818 163 155 387 220 609 178z"/>
    </g>
</svg>
